<mxfile host="Electron" agent="Mozilla/5.0 (Macintosh; Intel Mac OS X 10_15_7) AppleWebKit/537.36 (KHTML, like Gecko) draw.io/26.2.15 Chrome/134.0.6998.205 Electron/35.2.1 Safari/537.36" version="26.2.15">
  <diagram id="LUP_JMnlsMSMWevKRAmz" name="gold_layer">
    <mxGraphModel dx="3253" dy="2173" grid="1" gridSize="10" guides="1" tooltips="1" connect="1" arrows="1" fold="1" page="1" pageScale="1" pageWidth="2336" pageHeight="1654" math="0" shadow="0">
      <root>
        <mxCell id="0" />
        <mxCell id="1" parent="0" />
        <mxCell id="a8VaLkwzNhfZS4QtDb7y-1" value="&lt;b&gt;&lt;font style=&quot;font-size: 24px;&quot;&gt;Gold Layer&lt;/font&gt;&lt;/b&gt;" style="rounded=0;whiteSpace=wrap;html=1;fillColor=light-dark(#FFC70F,#4285F4);strokeColor=#d6b656;shadow=1;shadowOpacity=100;shadowOffsetX=6;shadowOffsetY=6;shadowBlur=0;" parent="1" vertex="1">
          <mxGeometry x="1088" y="63" width="180" height="60" as="geometry" />
        </mxCell>
        <mxCell id="a8VaLkwzNhfZS4QtDb7y-2" value="" style="editableCssRules=.*;html=1;shape=image;verticalLabelPosition=bottom;labelBackgroundColor=#ffffff;verticalAlign=top;aspect=fixed;imageAspect=0;image=data:image/svg+xml,PHN2ZyB4bWxucz0iaHR0cDovL3d3dy53My5vcmcvMjAwMC9zdmciIHhtbG5zOnY9Imh0dHBzOi8vdmVjdGEuaW8vbmFubyIgd2lkdGg9IjE0LjY1OTk5OTg0NzQxMjExIiBoZWlnaHQ9IjIwIiB2aWV3Qm94PSIwIDAgMTQuNjU5OTk5ODQ3NDEyMTEgMjAiIHN0eWxlPSJjb2xvci1zY2hlbWU6IGxpZ2h0IGRhcms7Ij4mI3hhOwk8c3R5bGUgdHlwZT0idGV4dC9jc3MiPi5zdDAgeyBmaWxsOiBsaWdodC1kYXJrKHJnYigyNTUsIDE5OSwgMTUpLCByZ2IoNjYsIDEzMywgMjQ0KSk7IH0gLnN0MSB7IGZpbGw6IGxpZ2h0LWRhcmsocmdiKDI1NSwgMTk5LCAxNSksIHJnYig2NiwgMTMzLCAyNDQpKTsgfSAuc3QyIHsgZmlsbDogbGlnaHQtZGFyayhyZ2IoMjU1LCAxOTksIDE1KSwgcmdiKDY2LCAxMzMsIDI0NCkpOyB9IDwvc3R5bGU+JiN4YTsJPHN0eWxlPiYjeGE7CQkuRHtmaWxsLXJ1bGU6ZXZlbm9kZH0mI3hhOwk8L3N0eWxlPiYjeGE7CTxwYXRoIGQ9Ik03LjMzIDE1LjM1di0zLjAxTDAgOC40NHYzLjAxem0wIDQuNjV2LTMuMDFMMCAxMy4wOXYzLjAxeiIgY2xhc3M9InN0MiBEIi8+JiN4YTsJPHBhdGggZD0iTTE0LjY2IDguNDRsLTcuMzMgMy45djMuMDFsNy4zMy0zLjl6bTAgNC42NWwtNy4zMyAzLjlWMjBsNy4zMy0zLjl6IiBjbGFzcz0ic3QxIEQiLz4mI3hhOwk8cGF0aCBkPSJNNy4zMyAwdjMuMDFsNy4zMyAzLjlWMy45eiIgY2xhc3M9InN0MCBEIi8+JiN4YTsJPHBhdGggZD0iTTAgNi45MWw3LjMzLTMuOVYwTDAgMy45eiIgY2xhc3M9IkQgc3QxIi8+JiN4YTsJPHBhdGggZD0iTTcuMzMgMTAuNzlWNy43N0wwIDMuODd2My4wMnoiIGNsYXNzPSJEIHN0MiIvPiYjeGE7CTxwYXRoIGQ9Ik0xNC42NiAzLjg3bC03LjMzIDMuOXYzLjAybDcuMzMtMy45eiIgY2xhc3M9IkQgc3QxIi8+JiN4YTs8L3N2Zz4=;" parent="1" vertex="1">
          <mxGeometry x="1040" y="63" width="45" height="60" as="geometry" />
        </mxCell>
        <mxCell id="a8VaLkwzNhfZS4QtDb7y-3" value="&lt;span style=&quot;font-size: 14px;&quot;&gt;&lt;b&gt;Explore &lt;/b&gt;&amp;amp;&lt;b&gt; Understand&lt;/b&gt;&lt;/span&gt;&lt;div&gt;&lt;span style=&quot;font-size: 14px;&quot;&gt;the Business Objects&lt;/span&gt;&lt;/div&gt;" style="rounded=1;whiteSpace=wrap;html=1;arcSize=5;shadow=1;shadowOpacity=100;shadowOffsetY=6;shadowOffsetX=6;shadowBlur=0;" parent="1" vertex="1">
          <mxGeometry x="563" y="223" width="220" height="60" as="geometry" />
        </mxCell>
        <mxCell id="a8VaLkwzNhfZS4QtDb7y-4" value="&lt;b&gt;&lt;font style=&quot;font-size: 15px;&quot;&gt;Analysing&lt;/font&gt;&lt;/b&gt;" style="rounded=0;whiteSpace=wrap;html=1;fillColor=#dae8fc;strokeColor=#6c8ebf;" parent="1" vertex="1">
          <mxGeometry x="593" y="203" width="160" height="30" as="geometry" />
        </mxCell>
        <mxCell id="a8VaLkwzNhfZS4QtDb7y-5" value="&lt;span style=&quot;font-size: 14px;&quot;&gt;Data&lt;b&gt;&amp;nbsp;Integration&lt;/b&gt;&lt;/span&gt;" style="rounded=1;whiteSpace=wrap;html=1;arcSize=5;shadow=1;shadowOpacity=100;shadowOffsetX=6;shadowOffsetY=6;shadowBlur=0;" parent="1" vertex="1">
          <mxGeometry x="902" y="223" width="220" height="60" as="geometry" />
        </mxCell>
        <mxCell id="a8VaLkwzNhfZS4QtDb7y-6" value="&lt;b&gt;&lt;font style=&quot;font-size: 15px;&quot;&gt;Coding&lt;/font&gt;&lt;/b&gt;" style="rounded=0;whiteSpace=wrap;html=1;fillColor=#dae8fc;strokeColor=#6c8ebf;" parent="1" vertex="1">
          <mxGeometry x="932" y="203" width="160" height="30" as="geometry" />
        </mxCell>
        <mxCell id="a8VaLkwzNhfZS4QtDb7y-7" value="" style="html=1;shadow=0;dashed=0;align=center;verticalAlign=middle;shape=mxgraph.arrows2.arrow;dy=0;dx=30;notch=30;fillColor=#000000;" parent="1" vertex="1">
          <mxGeometry x="813" y="228" width="60" height="50" as="geometry" />
        </mxCell>
        <mxCell id="a8VaLkwzNhfZS4QtDb7y-8" value="&lt;span style=&quot;font-size: 14px;&quot;&gt;Data &lt;b&gt;Integration&lt;/b&gt;&amp;nbsp;Checks&lt;/span&gt;" style="rounded=1;whiteSpace=wrap;html=1;arcSize=5;shadow=1;shadowOpacity=100;shadowOffsetX=6;shadowOffsetY=6;shadowBlur=0;" parent="1" vertex="1">
          <mxGeometry x="1233" y="223" width="220" height="60" as="geometry" />
        </mxCell>
        <mxCell id="a8VaLkwzNhfZS4QtDb7y-9" value="&lt;b&gt;&lt;font style=&quot;font-size: 15px;&quot;&gt;Validating&lt;/font&gt;&lt;/b&gt;" style="rounded=0;whiteSpace=wrap;html=1;fillColor=#dae8fc;strokeColor=#6c8ebf;" parent="1" vertex="1">
          <mxGeometry x="1263" y="203" width="160" height="30" as="geometry" />
        </mxCell>
        <mxCell id="a8VaLkwzNhfZS4QtDb7y-10" value="" style="html=1;shadow=0;dashed=0;align=center;verticalAlign=middle;shape=mxgraph.arrows2.arrow;dy=0;dx=30;notch=30;fillColor=#000000;" parent="1" vertex="1">
          <mxGeometry x="1153" y="228" width="60" height="50" as="geometry" />
        </mxCell>
        <mxCell id="a8VaLkwzNhfZS4QtDb7y-11" value="" style="html=1;shadow=0;dashed=0;align=center;verticalAlign=middle;shape=mxgraph.arrows2.arrow;dy=0;dx=30;notch=30;fillColor=#000000;" parent="1" vertex="1">
          <mxGeometry x="1483" y="228" width="60" height="50" as="geometry" />
        </mxCell>
        <mxCell id="a8VaLkwzNhfZS4QtDb7y-12" value="&lt;span style=&quot;font-size: 14px;&quot;&gt;Data &lt;b&gt;Documenting&lt;/b&gt;&lt;/span&gt;&lt;div&gt;&lt;span style=&quot;font-size: 14px;&quot;&gt;Versioning in &lt;b&gt;GIT&lt;/b&gt;&lt;/span&gt;&lt;/div&gt;" style="rounded=1;whiteSpace=wrap;html=1;arcSize=5;shadow=1;shadowOpacity=100;shadowOffsetX=6;shadowOffsetY=6;shadowBlur=0;" parent="1" vertex="1">
          <mxGeometry x="1573" y="223" width="220" height="60" as="geometry" />
        </mxCell>
        <mxCell id="a8VaLkwzNhfZS4QtDb7y-13" value="&lt;b&gt;&lt;font style=&quot;font-size: 15px;&quot;&gt;Docs &amp;amp; Version&lt;/font&gt;&lt;/b&gt;" style="rounded=0;whiteSpace=wrap;html=1;fillColor=#dae8fc;strokeColor=#6c8ebf;" parent="1" vertex="1">
          <mxGeometry x="1603" y="203" width="160" height="30" as="geometry" />
        </mxCell>
        <mxCell id="a8VaLkwzNhfZS4QtDb7y-32" value="&lt;font style=&quot;font-size: 60px;&quot;&gt;\Rahul-404&lt;/font&gt;" style="rounded=0;whiteSpace=wrap;html=1;align=right;" parent="1" vertex="1">
          <mxGeometry x="1940" y="1533" width="390" height="120" as="geometry" />
        </mxCell>
        <mxCell id="a8VaLkwzNhfZS4QtDb7y-33" value="" style="dashed=0;outlineConnect=0;html=1;align=center;labelPosition=center;verticalLabelPosition=bottom;verticalAlign=top;shape=mxgraph.weblogos.github;strokeWidth=1;" parent="1" vertex="1">
          <mxGeometry x="1950" y="1555.5" width="70" height="75" as="geometry" />
        </mxCell>
        <mxCell id="a8VaLkwzNhfZS4QtDb7y-34" value="&lt;b&gt;Build&amp;nbsp;&lt;/b&gt;&lt;span style=&quot;background-color: transparent; color: light-dark(rgb(0, 0, 0), rgb(255, 255, 255));&quot;&gt;the&amp;nbsp;&lt;/span&gt;&lt;div&gt;&lt;b&gt;Business Object&lt;/b&gt;&lt;/div&gt;" style="rounded=0;whiteSpace=wrap;html=1;fillColor=#d5e8d4;strokeColor=#82b366;" parent="1" vertex="1">
          <mxGeometry x="779" y="359" width="140" height="40" as="geometry" />
        </mxCell>
        <mxCell id="a8VaLkwzNhfZS4QtDb7y-35" value="&lt;b&gt;Choose&lt;/b&gt;&amp;nbsp;Type&lt;b&gt;&amp;nbsp;&lt;/b&gt;&lt;div&gt;&lt;b style=&quot;background-color: transparent; color: light-dark(rgb(0, 0, 0), rgb(255, 255, 255));&quot;&gt;Dimension &lt;/b&gt;&lt;span style=&quot;background-color: transparent; color: light-dark(rgb(0, 0, 0), rgb(255, 255, 255));&quot;&gt;vs&lt;/span&gt;&lt;b style=&quot;background-color: transparent; color: light-dark(rgb(0, 0, 0), rgb(255, 255, 255));&quot;&gt;&amp;nbsp;&lt;/b&gt;&lt;b style=&quot;background-color: transparent; color: light-dark(rgb(0, 0, 0), rgb(255, 255, 255));&quot;&gt;Fact&lt;/b&gt;&lt;/div&gt;" style="rounded=0;whiteSpace=wrap;html=1;fillColor=#d5e8d4;strokeColor=#82b366;" parent="1" vertex="1">
          <mxGeometry x="952" y="359" width="140" height="40" as="geometry" />
        </mxCell>
        <mxCell id="a8VaLkwzNhfZS4QtDb7y-36" value="&lt;b&gt;Rename&amp;nbsp;&lt;/b&gt;&lt;div&gt;to&amp;nbsp;&lt;b style=&quot;background-color: transparent; color: light-dark(rgb(0, 0, 0), rgb(255, 255, 255));&quot;&gt;friendly &lt;/b&gt;&lt;span style=&quot;background-color: transparent; color: light-dark(rgb(0, 0, 0), rgb(255, 255, 255));&quot;&gt;names&lt;/span&gt;&lt;/div&gt;" style="rounded=0;whiteSpace=wrap;html=1;fillColor=#d5e8d4;strokeColor=#82b366;" parent="1" vertex="1">
          <mxGeometry x="1125" y="359" width="140" height="40" as="geometry" />
        </mxCell>
        <mxCell id="a8VaLkwzNhfZS4QtDb7y-37" value="" style="html=1;shadow=0;dashed=0;align=center;verticalAlign=middle;shape=mxgraph.arrows2.arrow;dy=0;dx=13;notch=12.52;fillColor=#000000;" parent="1" vertex="1">
          <mxGeometry x="921" y="364" width="30" height="30" as="geometry" />
        </mxCell>
        <mxCell id="a8VaLkwzNhfZS4QtDb7y-38" value="" style="html=1;shadow=0;dashed=0;align=center;verticalAlign=middle;shape=mxgraph.arrows2.arrow;dy=0;dx=13;notch=12.52;fillColor=#000000;" parent="1" vertex="1">
          <mxGeometry x="1094" y="364" width="30" height="30" as="geometry" />
        </mxCell>
        <mxCell id="a8VaLkwzNhfZS4QtDb7y-39" value="" style="endArrow=none;html=1;rounded=0;exitX=0;exitY=0;exitDx=0;exitDy=0;entryX=0;entryY=1;entryDx=0;entryDy=0;dashed=1;" parent="1" source="a8VaLkwzNhfZS4QtDb7y-34" target="a8VaLkwzNhfZS4QtDb7y-5" edge="1">
          <mxGeometry width="50" height="50" relative="1" as="geometry">
            <mxPoint x="1060" y="399" as="sourcePoint" />
            <mxPoint x="1110" y="349" as="targetPoint" />
          </mxGeometry>
        </mxCell>
        <mxCell id="a8VaLkwzNhfZS4QtDb7y-40" value="" style="endArrow=none;html=1;rounded=0;exitX=1;exitY=0;exitDx=0;exitDy=0;entryX=1;entryY=1;entryDx=0;entryDy=0;dashed=1;" parent="1" source="a8VaLkwzNhfZS4QtDb7y-36" target="a8VaLkwzNhfZS4QtDb7y-5" edge="1">
          <mxGeometry width="50" height="50" relative="1" as="geometry">
            <mxPoint x="940" y="365" as="sourcePoint" />
            <mxPoint x="1063" y="289" as="targetPoint" />
          </mxGeometry>
        </mxCell>
        <mxCell id="a8VaLkwzNhfZS4QtDb7y-41" style="edgeStyle=orthogonalEdgeStyle;rounded=0;orthogonalLoop=1;jettySize=auto;html=1;entryX=0.5;entryY=0;entryDx=0;entryDy=0;curved=1;dashed=1;strokeColor=#808080;" parent="1" source="a8VaLkwzNhfZS4QtDb7y-42" target="a8VaLkwzNhfZS4QtDb7y-13" edge="1">
          <mxGeometry relative="1" as="geometry">
            <Array as="points">
              <mxPoint x="1630" y="134" />
              <mxPoint x="1630" y="181" />
              <mxPoint x="1683" y="181" />
            </Array>
          </mxGeometry>
        </mxCell>
        <mxCell id="a8VaLkwzNhfZS4QtDb7y-42" value="&lt;font face=&quot;Comic Sans MS&quot; style=&quot;font-size: 15px;&quot;&gt;Data Model&lt;/font&gt;&lt;div&gt;&lt;font face=&quot;Comic Sans MS&quot;&gt;&lt;span style=&quot;font-size: 15px;&quot;&gt;Data Catalog&lt;br&gt;&lt;/span&gt;&lt;/font&gt;&lt;div&gt;&lt;font face=&quot;Comic Sans MS&quot; style=&quot;font-size: 15px;&quot;&gt;Data Flow&lt;/font&gt;&lt;/div&gt;&lt;/div&gt;" style="text;html=1;align=left;verticalAlign=middle;whiteSpace=wrap;rounded=0;" parent="1" vertex="1">
          <mxGeometry x="1673" y="109" width="137" height="61" as="geometry" />
        </mxCell>
      </root>
    </mxGraphModel>
  </diagram>
</mxfile>
